<svg width="35" height="28" viewBox="0 0 35 28" fill="none" xmlns="http://www.w3.org/2000/svg">
<mask id="mask0_5_46" style="mask-type:luminance" maskUnits="userSpaceOnUse" x="0" y="0" width="35" height="28">
<path d="M0 0H35V27.6435H0V0Z" fill="{props.color}"/>
</mask>
<g mask="url(#mask0_5_46)">
<path d="M34.0193 22.7773H25.9207C25.7517 19.3357 23.3708 16.4678 20.1734 15.5638C20.3176 15.3363 20.4742 15.1172 20.6432 14.9086C20.7603 14.7857 20.8744 14.6552 20.9853 14.5178C22.1535 13.2771 23.7732 12.4674 25.5823 12.3513C25.9016 12.436 26.2282 12.4814 26.5594 12.4814C26.8909 12.4814 27.2173 12.436 27.5367 12.3513C31.1557 12.5837 34.0193 15.5906 34.0193 19.2684V22.7773ZM24.9596 23.2629V26.6784H10.0397V23.1696C10.0397 23.0378 10.0441 22.9073 10.0513 22.7773C10.223 19.7008 12.3999 17.1607 15.297 16.4415C15.4565 16.4018 15.6183 16.3688 15.7819 16.3402C15.9459 16.3119 16.1114 16.2874 16.279 16.271C16.3596 16.2629 16.441 16.2577 16.5225 16.2525C16.8417 16.3374 17.1683 16.3826 17.4996 16.3826C17.831 16.3826 18.1574 16.3374 18.4768 16.2525C18.5581 16.2577 18.6395 16.2629 18.7203 16.271C18.8879 16.2874 19.0532 16.3119 19.2174 16.3402C19.3808 16.3688 19.5428 16.402 19.7023 16.4415C22.5993 17.1609 24.7761 19.7008 24.948 22.7773C24.9549 22.9073 24.9596 23.0378 24.9596 23.1696V23.2629ZM9.07828 22.7773H0.979801V19.2684C0.979801 15.5906 3.84347 12.5837 7.46246 12.3513C7.78181 12.436 8.10842 12.4814 8.43958 12.4814C8.77108 12.4814 9.09752 12.436 9.41687 12.3513C11.2258 12.4674 12.845 13.2767 14.0132 14.517C14.1246 14.6551 14.2392 14.7859 14.3566 14.9092C14.5254 15.1175 14.6817 15.3365 14.8257 15.5638C11.6283 16.4678 9.24724 19.3357 9.07828 22.7773ZM12.7997 12.3587C12.2127 12.0317 11.5802 11.7767 10.9139 11.6072C11.4013 11.2394 11.8528 10.7619 12.2525 10.1805C12.2672 10.159 12.2812 10.1366 12.2957 10.1148C12.3587 10.8767 12.5315 11.639 12.7997 12.3587ZM4.17953 5.56832C4.17953 2.65823 6.08701 0.971698 8.43958 0.971698C10.7923 0.971698 12.6998 2.65823 12.6998 5.56832C12.6998 8.1123 11.2418 10.7493 9.3031 11.3723C9.02427 11.4619 8.73547 11.51 8.43958 11.51C8.14386 11.51 7.85507 11.4621 7.57623 11.3723C5.63752 10.7493 4.17953 8.1123 4.17953 5.56832ZM17.4996 4.87291C19.8522 4.87291 21.7595 6.55944 21.7595 9.46936C21.7595 11.0946 21.1644 12.7572 20.229 13.9092C20.1417 14.0167 20.0512 14.119 19.9584 14.217C19.488 14.7135 18.9477 15.0855 18.3628 15.2735C18.084 15.3631 17.7954 15.4112 17.4996 15.4112C17.2038 15.4112 16.915 15.3631 16.6361 15.2735C16.0525 15.0858 15.513 14.7146 15.0431 14.2192C14.9491 14.1203 14.8574 14.0169 14.7692 13.908C13.8344 12.7562 13.2394 11.094 13.2394 9.46936C13.2394 6.55944 15.1467 4.87291 17.4996 4.87291ZM22.7034 10.1148C22.7183 10.1366 22.7319 10.159 22.7466 10.1805C23.1465 10.7619 23.5981 11.2394 24.0853 11.6072C23.4189 11.7767 22.7866 12.0317 22.1992 12.3589C22.4674 11.6391 22.6404 10.8767 22.7034 10.1148ZM26.5594 0.971698C28.9121 0.971698 30.8196 2.65823 30.8196 5.56832C30.8196 8.1123 29.3616 10.7493 27.4231 11.3723C27.1441 11.4621 26.8551 11.51 26.5594 11.51C26.2637 11.51 25.9749 11.4621 25.696 11.3723C23.7573 10.7493 22.2992 8.1123 22.2992 5.56832C22.2992 2.65823 24.2068 0.971698 26.5594 0.971698ZM29.0335 11.6072C29.5208 11.2394 29.9725 10.7619 30.3721 10.1805C31.2738 8.86864 31.791 7.18768 31.791 5.56832C31.791 3.92246 31.2632 2.51527 30.265 1.49832C29.3169 0.53251 28.0007 0.000488281 26.5594 0.000488281C25.1181 0.000488281 23.8024 0.53251 22.854 1.49832C21.8628 2.50784 21.3365 3.90254 21.3286 5.5327C21.2881 5.48781 21.2476 5.44274 21.2052 5.39953C20.2568 4.43372 18.9409 3.9017 17.4996 3.9017C16.0582 3.9017 14.7421 4.43372 13.7941 5.39953C13.7517 5.44274 13.7112 5.48781 13.6703 5.53237C13.6627 3.90221 13.1361 2.50784 12.1452 1.49832C11.1969 0.53251 9.88104 0.000488281 8.43958 0.000488281C6.9983 0.000488281 5.68242 0.53251 4.73417 1.49832C3.73595 2.51527 3.20815 3.92246 3.20815 5.56832C3.20815 7.18768 3.72532 8.86864 4.62682 10.1805C5.02651 10.7619 5.47819 11.2394 5.96565 11.6072C2.54565 12.477 0.00842285 15.5817 0.00842285 19.2684V22.7773C0.00842285 23.3137 0.443391 23.7485 0.979801 23.7485H9.06832V26.6784C9.06832 27.2149 9.50312 27.6497 10.0397 27.6497H24.9596C25.496 27.6497 25.9308 27.2149 25.9308 26.6784V23.7485H34.0193C34.5557 23.7485 34.9905 23.3137 34.9905 22.7773V19.2684C34.9905 15.5817 32.4535 12.477 29.0335 11.6072Z" fill="{props.color}"/>
</g>
</svg>
