<svg width="30" height="30" viewBox="0 0 30 30" fill="none" xmlns="http://www.w3.org/2000/svg">
<mask id="mask0_5_7" style="mask-type:luminance" maskUnits="userSpaceOnUse" x="0" y="0" width="30" height="30">
<path d="M0 0H30V30H0V0Z" fill="{props.color}"/>
</mask>
<g mask="url(#mask0_5_7)">
<path d="M28.2891 3.29573H21.8882L18.5139 0.708562C18.4599 0.666967 18.406 0.634777 18.352 0.602587C17.8185 0.260428 16.9856 0.015564 16.3263 0.015564H1.67801C0.755009 0.015564 0 0.597885 0 1.30933V25.4109C0 26.1223 0.755009 26.7043 1.67801 26.7043H3.5958V28.6907C3.5958 29.4021 4.35127 29.9845 5.27427 29.9845H28.2891C29.2121 29.9845 29.9676 29.4021 29.9676 28.6907V4.58479C29.9676 3.87335 29.2121 3.29573 28.2891 3.29573ZM18.0043 1.79906L24.0336 6.41422H18.3159C18.1423 6.41422 17.9982 6.30318 17.9982 6.16935V1.79906H18.0043ZM1.36033 25.4109V1.30933C1.36033 1.17514 1.50439 1.06446 1.67801 1.06446H16.3263C16.4281 1.06446 16.5417 1.07821 16.6618 1.10136C16.6496 1.1661 16.644 1.23518 16.644 1.30463V6.16465C16.644 6.8761 17.399 7.45806 18.322 7.45806H24.6929C24.7891 7.45806 24.8787 7.45372 24.9566 7.44431C24.9866 7.5369 25.0049 7.62443 25.0049 7.70292V25.4062C25.0049 25.54 24.8609 25.6511 24.6873 25.6511H1.67801C1.50439 25.6554 1.36033 25.5447 1.36033 25.4109ZM28.6068 28.6907C28.6068 28.8249 28.4632 28.9356 28.2891 28.9356H5.27427C5.10018 28.9356 4.95659 28.8249 4.95659 28.6907V26.7043H24.6929C25.6163 26.7043 26.3714 26.1223 26.3714 25.4109V7.70762C26.3714 7.19945 26.0537 6.56649 25.6102 6.15525C25.568 6.11402 25.5202 6.07242 25.4601 6.02613L23.2608 4.34463H28.2891C28.4632 4.34463 28.6068 4.45531 28.6068 4.58913V28.6907ZM21.1928 11.3806H5.17808C4.85477 11.3806 4.59669 11.1773 4.59669 10.9324C4.59669 10.6876 4.8604 10.4843 5.17808 10.4843H21.1928C21.5166 10.4843 21.7742 10.6876 21.7742 10.9324C21.7742 11.1773 21.5166 11.3806 21.1928 11.3806ZM21.1928 14.6604H5.17808C4.85477 14.6604 4.59669 14.4571 4.59669 14.2123C4.59669 13.9674 4.8604 13.7641 5.17808 13.7641H21.1928C21.5166 13.7641 21.7742 13.9674 21.7742 14.2123C21.7742 14.4571 21.5166 14.6604 21.1928 14.6604ZM21.1928 17.9358H5.17808C4.85477 17.9358 4.59669 17.7326 4.59669 17.4877C4.59669 17.2429 4.8604 17.0396 5.17808 17.0396H21.1928C21.5166 17.0396 21.7742 17.2429 21.7742 17.4877C21.7742 17.7326 21.5166 17.9358 21.1928 17.9358ZM12.0468 21.216H5.17808C4.85477 21.216 4.59669 21.0127 4.59669 20.7679C4.59669 20.5183 4.8604 20.3197 5.17808 20.3197H12.0468C12.3706 20.3197 12.6282 20.523 12.6282 20.7679C12.6282 21.0127 12.3706 21.216 12.0468 21.216Z" fill="{props.color}"/>
</g>
</svg>
