<svg width="30" height="30" viewBox="0 0 30 30" fill="none" xmlns="http://www.w3.org/2000/svg">
<path d="M15.7375 16.2495L12.8625 19.112C12.7453 19.2282 12.6524 19.3664 12.5889 19.5188C12.5254 19.6711 12.4927 19.8345 12.4927 19.9995C12.4927 20.1645 12.5254 20.3279 12.5889 20.4803C12.6524 20.6326 12.7453 20.7708 12.8625 20.887C12.9787 21.0042 13.1169 21.0972 13.2692 21.1606C13.4216 21.2241 13.585 21.2568 13.75 21.2568C13.915 21.2568 14.0784 21.2241 14.2307 21.1606C14.3831 21.0972 14.5213 21.0042 14.6375 20.887L19.6375 15.887C19.7513 15.7681 19.8405 15.6279 19.9 15.4745C20.025 15.1702 20.025 14.8288 19.9 14.5245C19.8405 14.3711 19.7513 14.2309 19.6375 14.112L14.6375 9.112C14.5209 8.99544 14.3826 8.903 14.2303 8.83994C14.0781 8.77688 13.9148 8.74438 13.75 8.74438C13.5852 8.74438 13.4219 8.77688 13.2697 8.83994C13.1174 8.903 12.9791 8.99544 12.8625 9.112C12.7459 9.22856 12.6535 9.36694 12.5904 9.51919C12.5274 9.6715 12.4949 9.83469 12.4949 9.9995C12.4949 10.1643 12.5274 10.3276 12.5904 10.4798C12.6535 10.6321 12.7459 10.7704 12.8625 10.887L15.7375 13.7495H3.75C3.41848 13.7495 3.10054 13.8812 2.86612 14.1156C2.63169 14.3501 2.5 14.668 2.5 14.9995C2.5 15.3311 2.63169 15.649 2.86612 15.8834C3.10054 16.1178 3.41848 16.2495 3.75 16.2495H15.7375ZM15 2.49951C12.6639 2.48909 10.3716 3.13353 8.38306 4.35976C6.39462 5.58598 4.78957 7.34488 3.75 9.437C3.60082 9.73538 3.57627 10.0808 3.68176 10.3973C3.78724 10.7138 4.01413 10.9753 4.3125 11.1245C4.61087 11.2737 4.95628 11.2983 5.27275 11.1928C5.58921 11.0873 5.85082 10.8604 6 10.562C6.79025 8.96619 7.99231 7.61031 9.48194 6.6345C10.9716 5.65871 12.6947 5.09841 14.4734 5.01151C16.2521 4.9246 18.0217 5.31424 19.5994 6.14015C21.1771 6.96606 22.5056 8.19831 23.4476 9.7095C24.3897 11.2207 24.9111 12.9561 24.958 14.7363C25.0049 16.5164 24.5756 18.2768 23.7144 19.8355C22.8532 21.3943 21.5914 22.6947 20.0594 23.6026C18.5274 24.5104 16.7807 24.9926 15 24.9995C13.1361 25.0076 11.3077 24.4899 9.72462 23.5061C8.14156 22.5222 6.86794 21.1119 6.05 19.437C5.90082 19.1386 5.63921 18.9118 5.32275 18.8063C5.00628 18.7008 4.66087 18.7253 4.3625 18.8745C4.06413 19.0237 3.83724 19.2853 3.73176 19.6018C3.62627 19.9183 3.65082 20.2636 3.8 20.562C4.79104 22.5564 6.29687 24.2498 8.16181 25.4671C10.0267 26.6843 12.1831 27.3813 14.4076 27.4858C16.6322 27.5903 18.8444 27.0985 20.8152 26.0614C22.786 25.0243 24.444 23.4795 25.6176 21.5868C26.7912 19.6941 27.4378 17.5222 27.4906 15.2958C27.5434 13.0694 27.0004 10.8693 25.9178 8.92307C24.8352 6.97688 23.2523 5.35523 21.3328 4.2259C19.4134 3.09657 17.2271 2.50056 15 2.49951Z" fill="{props.color}"/>
</svg>
