<svg width="35" height="35" viewBox="0 0 35 35" fill="none" xmlns="http://www.w3.org/2000/svg">
<g clip-path="url(#clip0_5_47)">
<mask id="mask0_5_47" style="mask-type:luminance" maskUnits="userSpaceOnUse" x="13" y="21" width="17" height="9">
<path d="M13.4382 21.5185H29.0802V29.0671H13.4382V21.5185Z" fill="{props.color}"/>
</mask>
<g mask="url(#mask0_5_47)">
<path d="M21.2675 21.5366C18.3611 21.5366 13.4634 22.0478 13.4634 23.9585V26.6495C13.4634 28.5602 18.3611 29.0716 21.2675 29.0716C24.1739 29.0716 29.0716 28.5602 29.0716 26.6495V23.9585C29.0716 22.0478 24.1739 21.5366 21.2675 21.5366ZM27.9952 23.9585C27.8607 24.4159 25.3849 25.3041 21.2675 25.3041C20.7292 25.3041 20.218 25.2771 19.7067 25.2502L24.3084 22.8013C26.569 23.0703 27.8875 23.6356 27.9952 23.9585ZM14.5397 23.9585C14.6474 23.5009 17.1501 22.6129 21.2675 22.6129C21.6442 22.6129 21.9671 22.6129 22.317 22.6398L17.769 25.0619C17.2309 24.981 16.7465 24.9003 16.3159 24.7658C14.9703 24.4429 14.5666 24.066 14.5397 23.9585ZM27.9952 26.6495C27.8875 27.1071 25.3849 27.9951 21.2675 27.9951C17.1501 27.9951 14.6474 27.1071 14.5397 26.6495V25.3041C14.9435 25.5193 15.4277 25.6808 16.0467 25.8422C17.4731 26.1921 19.303 26.3805 21.2675 26.3805C23.3127 26.3805 26.3806 26.1114 27.9952 25.3041V26.6495Z" fill="{props.color}"/>
</g>
<mask id="mask1_5_47" style="mask-type:luminance" maskUnits="userSpaceOnUse" x="24" y="5" width="11" height="17">
<path d="M24.7593 5.92822H35V21.3025H24.7593V5.92822Z" fill="{props.color}"/>
</mask>
<g mask="url(#mask1_5_47)">
<path d="M32.3011 10.0186V9.15749C32.893 9.15749 33.3774 8.67306 33.3774 8.08095V7.00459C33.3774 6.41248 32.893 5.92822 32.3011 5.92822H27.457C26.865 5.92822 26.3806 6.41248 26.3806 7.00459V8.08095C26.3806 8.67306 26.865 9.15749 27.457 9.15749V10.0186C25.923 10.3147 24.766 11.6871 24.766 13.3018V19.1145C24.766 20.2985 25.7347 21.2674 26.9189 21.2674H32.8393C34.0234 21.2674 34.992 20.2985 34.992 19.1145V13.3018C34.992 11.6871 33.835 10.3415 32.3011 10.0186ZM27.457 7.00459H32.3011V8.08095H27.457V7.00459ZM31.2245 9.15749V9.9648H28.5335V9.15749H31.2245ZM28.1029 11.0412H31.6551C32.4624 11.0412 33.189 11.4717 33.5928 12.1177H26.1923C26.5958 11.4717 27.2956 11.0412 28.1029 11.0412ZM32.8393 20.191H26.9189C26.4075 20.191 26.0039 19.8411 25.8694 19.3837H33.8618C33.7542 19.8411 33.3506 20.191 32.8393 20.191ZM33.9157 18.3072H25.8424V13.3018C25.8424 13.2749 25.8424 13.2211 25.8424 13.1941H33.9157C33.9157 13.2211 33.9157 13.2749 33.9157 13.3018V18.3072Z" fill="{props.color}"/>
</g>
<path d="M30.9554 15.0779H30.4172V14.5396C30.4172 14.2436 30.175 14.0013 29.8791 14.0013C29.583 14.0013 29.3408 14.2436 29.3408 14.5396V15.0779H28.8025C28.5065 15.0779 28.2643 15.3201 28.2643 15.6161C28.2643 15.912 28.5065 16.1542 28.8025 16.1542H29.3408V16.6925C29.3408 16.9886 29.583 17.2308 29.8791 17.2308C30.175 17.2308 30.4172 16.9886 30.4172 16.6925V16.1542H30.9554C31.2515 16.1542 31.4937 15.912 31.4937 15.6161C31.4937 15.3201 31.2515 15.0779 30.9554 15.0779Z" fill="{props.color}"/>
<path d="M6.11672 27.3493C7.54298 27.3493 8.96925 26.8111 10.0456 25.7077L12.6023 23.1512L18.8724 16.8809C21.0523 14.7012 21.0523 11.1759 18.8724 8.99595C16.6927 6.81621 13.1674 6.81621 10.9875 8.99595L2.18766 17.8227C0.00792247 20.0027 0.00792247 23.528 2.18766 25.7077C3.26402 26.8111 4.69029 27.3493 6.11672 27.3493ZM14.9435 8.45785C16.1006 8.45785 17.2578 8.88843 18.1189 9.77643C19.8681 11.5256 19.8681 14.3783 18.1189 16.1274L14.163 20.0833C14.4053 18.5494 14.0015 16.9347 12.979 15.6969L16.9887 11.6871C17.2039 11.4717 17.2039 11.1488 16.9887 10.9336C15.9392 9.88411 14.5398 9.292 13.0597 9.292C12.7906 9.292 12.5484 9.31901 12.3062 9.34585C13.0597 8.75374 14.0015 8.45785 14.9435 8.45785ZM9.85724 11.6601C10.7184 10.7991 11.8218 10.3415 13.0328 10.3415C14.0554 10.3415 15.0242 10.6914 15.8047 11.3104L12.1985 14.9164C11.7411 14.5396 11.2567 14.2706 10.7454 14.0552L12.7098 12.01C12.9251 11.7948 12.8981 11.4449 12.6829 11.2565C12.4676 11.0412 12.1178 11.0682 11.9295 11.2834L9.58819 13.7323C8.99608 13.6246 8.40414 13.6246 7.81203 13.7323L9.85724 11.6601ZM2.94113 18.6032L5.49777 16.0468C7.24693 14.2974 10.0995 14.2974 11.8486 16.0468C13.5979 17.7959 13.5979 20.6484 11.8486 22.3976L9.29214 24.9542C7.54298 26.7034 4.69029 26.7034 2.94113 24.9542C1.19197 23.2051 1.19197 20.3524 2.94113 18.6032Z" fill="{props.color}"/>
<path d="M3.34484 22.9628C3.64072 22.9358 3.8561 22.6668 3.80225 22.3707C3.72157 21.8325 3.74841 21.3212 3.88293 20.7829C3.93678 20.4871 3.77542 20.2178 3.47936 20.1372C3.1833 20.0833 2.91426 20.2448 2.83341 20.5407C2.69888 21.1867 2.64504 21.8325 2.75273 22.5053C2.77956 22.7745 3.02177 22.9628 3.29099 22.9628C3.29099 22.9628 3.31783 22.9628 3.34484 22.9628Z" fill="{props.color}"/>
</g>
<defs>
<clipPath id="clip0_5_47">
<rect width="35" height="35" fill="{props.color}"/>
</clipPath>
</defs>
</svg>
