<svg width="30" height="30" viewBox="0 0 30 30" fill="none" xmlns="http://www.w3.org/2000/svg">
<g clip-path="url(#clip0_5_74)">
<path d="M16.1754 -0.003479C16.6309 0.18894 16.9429 0.492615 16.9591 1.0201C16.9591 1.20789 17.0912 1.20558 17.2234 1.20558C17.9745 1.20558 18.7303 1.23914 19.4757 1.19748C20.9826 1.114 22.4003 2.26967 22.3888 4.12326C22.3724 6.81495 22.3888 9.5065 22.3888 12.1982C22.3888 12.277 22.3888 12.3547 22.3888 12.4301C22.3818 12.6039 22.4212 12.6619 22.6032 12.5622C23.5653 12.0116 24.6108 11.8481 25.704 11.9096C26.207 11.9373 26.4459 12.1936 26.3717 12.685C26.1943 13.8571 25.8372 14.963 25.056 15.8879C24.9018 16.0699 24.8659 16.1464 25.1302 16.2611C26.4806 16.8478 27.3675 17.898 27.8462 19.2507C28.9045 22.2403 28.639 25.1175 26.8284 27.7558C25.8187 29.2268 24.3663 29.9919 22.5451 29.9792C21.5019 29.9722 20.4586 29.9699 19.4154 29.9792C17.5606 29.9965 16.1453 29.1677 15.0627 27.7059C14.9131 27.5124 14.7824 27.3069 14.6707 27.0893C14.5548 26.8573 14.4029 26.8018 14.1596 26.8029C10.7454 26.8099 7.3319 26.8099 3.91928 26.8029C2.54095 26.8029 1.43273 25.9126 1.16147 24.6004C1.13499 24.4666 1.12183 24.3313 1.12212 24.1947C1.12212 21.8934 1.12212 19.592 1.12212 17.2905C1.11358 17.2024 1.12212 17.1159 1.14758 17.031C1.17304 16.946 1.2137 16.8692 1.26925 16.8002C1.28806 16.7775 1.30831 16.7562 1.3303 16.7365C1.35229 16.7167 1.37559 16.6989 1.40018 16.6827C1.42492 16.6667 1.45067 16.6525 1.47758 16.6402C1.50435 16.628 1.53198 16.6179 1.56048 16.6099C1.58884 16.602 1.61763 16.5962 1.64686 16.5926C1.67622 16.589 1.70559 16.5877 1.73496 16.5885C1.76448 16.5894 1.7937 16.5926 1.82278 16.5979C1.85172 16.6033 1.88022 16.6108 1.908 16.6205C1.93765 16.6283 1.96644 16.6386 1.99451 16.6512C2.02243 16.6638 2.04905 16.6787 2.07452 16.6957C2.10012 16.7128 2.124 16.7319 2.14628 16.753C2.16856 16.774 2.18881 16.7969 2.20733 16.8213C2.22585 16.8458 2.2422 16.8717 2.25637 16.8989C2.27041 16.9261 2.28227 16.9543 2.29168 16.9834C2.30122 17.0126 2.30817 17.0424 2.31265 17.0728C2.31714 17.103 2.31902 17.1335 2.31844 17.1642C2.33001 17.5444 2.31844 17.9246 2.31844 18.3048C2.31844 20.1769 2.31844 22.0502 2.31844 23.9223C2.31844 24.7535 2.74842 25.3411 3.46717 25.5162C3.60085 25.5451 3.73612 25.5583 3.87284 25.5557C7.13022 25.5557 10.3876 25.5557 13.6448 25.5557C13.966 25.5557 13.9579 25.5557 13.8698 25.2241C13.2774 23.0065 13.2995 20.8191 14.3161 18.7222C14.9908 17.3312 16.0548 16.3633 17.599 16.0016C17.7914 15.9563 17.7972 15.8856 17.7149 15.7268C17.4653 15.2354 17.3046 14.7164 17.2326 14.17C17.2285 14.1483 17.2254 14.1266 17.2235 14.1046C17.2218 14.0826 17.2211 14.0606 17.2217 14.0385C17.2222 14.0165 17.224 13.9945 17.2269 13.9726C17.2298 13.9508 17.2338 13.9291 17.2392 13.9077C17.2444 13.8863 17.2507 13.8652 17.2583 13.8445C17.2658 13.8238 17.2745 13.8034 17.2842 13.7837C17.2938 13.7639 17.3046 13.7446 17.3164 13.726C17.3281 13.7073 17.3409 13.6894 17.3546 13.6722C17.3684 13.6548 17.383 13.6383 17.3984 13.6227C17.4141 13.6069 17.4303 13.5922 17.4473 13.5783C17.4646 13.5642 17.4824 13.5514 17.5009 13.5393C17.5193 13.5273 17.5383 13.5163 17.5582 13.5064C17.5778 13.4964 17.598 13.4876 17.6186 13.4797C17.6392 13.4721 17.6603 13.4654 17.6816 13.4599C17.703 13.4544 17.7245 13.4501 17.7464 13.4469C17.7682 13.4437 17.7901 13.4417 17.8122 13.4408C18.8879 13.3772 19.8686 13.6112 20.6545 14.4019C20.7833 14.5305 20.8342 14.5178 20.9258 14.3647C20.9961 14.2484 21.0491 14.1246 21.0846 13.9933C21.1204 13.8623 21.1373 13.7287 21.1356 13.5927C21.1275 10.4327 21.1356 7.27285 21.1298 4.114C21.1298 3.02893 20.5398 2.42852 19.4536 2.41811C18.7222 2.41116 17.9907 2.42389 17.2604 2.41811C17.0285 2.41811 16.9579 2.49464 16.9486 2.72178C16.9484 2.75679 16.9465 2.79152 16.9427 2.82624C16.9391 2.8611 16.9336 2.89554 16.9265 2.92968C16.9194 2.96397 16.9106 2.99768 16.9 3.03095C16.8895 3.06437 16.8775 3.09707 16.8636 3.12919C16.8498 3.16131 16.8345 3.1927 16.8176 3.22323C16.8008 3.25375 16.7824 3.28341 16.7625 3.3122C16.7426 3.34099 16.7214 3.36863 16.6988 3.39525C16.6762 3.42187 16.6522 3.44733 16.6272 3.47164C16.602 3.4958 16.5757 3.5188 16.5482 3.54036C16.5207 3.56206 16.4923 3.58217 16.4628 3.60098C16.4333 3.61978 16.4031 3.637 16.3718 3.65277C16.3407 3.66854 16.3087 3.68272 16.2762 3.69531C16.2435 3.70789 16.2104 3.71874 16.1768 3.728C16.1431 3.73726 16.1089 3.74478 16.0745 3.75072C16.0401 3.7565 16.0054 3.7607 15.9706 3.76301C15.9358 3.76547 15.9008 3.7662 15.8659 3.76504C13.1055 3.76967 10.3458 3.76967 7.58696 3.76504C7.55209 3.76576 7.51737 3.76461 7.48279 3.76186C7.44807 3.75911 7.41364 3.75462 7.37935 3.74855C7.34521 3.74233 7.31135 3.73451 7.27793 3.72496C7.24437 3.71556 7.21153 3.70442 7.17912 3.69169C7.14686 3.67896 7.11517 3.66463 7.08421 3.64872C7.05325 3.63295 7.02316 3.61559 6.99393 3.59678C6.96456 3.57797 6.93635 3.55772 6.90915 3.53616C6.88181 3.51461 6.85577 3.4916 6.83074 3.46744C6.80571 3.44328 6.78198 3.41796 6.75941 3.39149C6.73699 3.36501 6.71572 3.33738 6.69604 3.30888C6.67622 3.28023 6.65785 3.25072 6.64092 3.22033C6.624 3.18995 6.60866 3.1587 6.59492 3.12687C6.58103 3.0949 6.56887 3.06235 6.55817 3.02936C6.54761 2.99623 6.53864 2.96267 6.53126 2.92867C6.52403 2.89467 6.51838 2.86038 6.51448 2.8258C6.51043 2.79123 6.50826 2.7565 6.50768 2.72178C6.4961 2.48292 6.40915 2.42737 6.19011 2.43084C5.45979 2.4401 4.72831 2.43084 3.99683 2.43084C2.93736 2.44125 2.32539 3.05685 2.32423 4.11284C2.32423 6.17071 2.32423 8.22829 2.32423 10.2856C2.32423 11.0077 2.32423 11.7287 2.32423 12.4509C2.32423 12.8856 2.08421 13.1533 1.71442 13.1464C1.34463 13.1395 1.11401 12.8763 1.11401 12.4371C1.11401 9.56915 1.11401 6.70239 1.11401 3.83463C1.11401 2.42389 2.32191 1.22873 3.73496 1.21484C4.54399 1.20717 5.35316 1.20717 6.16234 1.21484C6.37906 1.21484 6.49032 1.18474 6.50999 0.923894C6.55412 0.460207 6.85779 0.179681 7.27041 0.00230803L16.1754 -0.003479ZM20.818 28.7689H22.4582C23.8412 28.7689 24.9934 28.2461 25.7701 27.1055C27.4614 24.6237 27.6769 21.9667 26.4714 19.2229C26.4171 19.093 26.3552 18.9669 26.2853 18.8446C26.2156 18.7222 26.1385 18.6047 26.054 18.4919C25.9696 18.3792 25.8786 18.2721 25.7811 18.1706C25.6835 18.0691 25.5799 17.974 25.4705 17.8853C25.3611 17.7966 25.2467 17.715 25.1272 17.6405C25.0077 17.566 24.8841 17.4991 24.7562 17.44C24.6285 17.3806 24.4975 17.3296 24.3634 17.2865C24.2293 17.2435 24.0932 17.2089 23.9547 17.1827C23.1318 17.0077 22.3215 17.1191 21.5344 17.3705C21.4456 17.4019 21.355 17.4258 21.2623 17.4421C21.1697 17.4585 21.0763 17.467 20.9822 17.4677C20.8882 17.4686 20.7946 17.4617 20.7017 17.4469C20.6088 17.4321 20.5177 17.4097 20.4285 17.3798C19.624 17.1167 18.7963 17.0065 17.9524 17.1897C16.6554 17.4702 15.8404 18.3152 15.328 19.4803C14.7345 20.8272 14.6175 22.2426 14.8157 23.6905C14.9803 24.8973 15.3582 26.0263 16.0838 27.0162C16.7944 27.9864 17.7172 28.6136 18.9505 28.7318C19.6136 28.7956 20.2755 28.7412 20.818 28.7689ZM11.7611 1.18706C10.5428 1.18706 9.32683 1.19516 8.1062 1.18706C7.81757 1.18706 7.72252 1.28211 7.74683 1.55685C7.76462 1.74999 7.76462 1.94314 7.74683 2.13642C7.71673 2.43547 7.83956 2.52126 8.13181 2.51895C9.75464 2.50737 11.3867 2.51316 13.0143 2.51316C13.8257 2.51316 14.6372 2.51316 15.4417 2.51316C15.6654 2.51316 15.7639 2.44473 15.7489 2.21064C15.7316 1.97873 15.7316 1.74696 15.7489 1.51504C15.7708 1.25303 15.6677 1.18359 15.4149 1.1859C14.1978 1.194 12.9829 1.18706 11.7611 1.18706ZM24.976 13.333C25.0213 13.1626 24.9204 13.1649 24.7963 13.1672C23.33 13.1905 21.976 14.3369 21.7128 15.7801C21.6769 15.9748 21.7373 16.034 21.9251 15.9935C22.2215 15.9327 22.521 15.8964 22.8234 15.8844C23.002 15.886 23.1701 15.8446 23.3277 15.7604C24.2574 15.2051 24.6908 14.3196 24.9783 13.333H24.976ZM18.8173 14.7438C18.67 14.7067 18.6469 14.7565 18.6885 14.8934C18.7076 14.967 18.7321 15.0389 18.7623 15.1088C18.7924 15.1787 18.8276 15.2458 18.8681 15.3103C18.9086 15.3747 18.9537 15.4358 19.0036 15.4932C19.0534 15.5508 19.1075 15.604 19.1655 15.6532C19.2237 15.7024 19.2852 15.7468 19.3501 15.7865C19.4151 15.8262 19.4826 15.8607 19.553 15.8899C19.6231 15.9191 19.6953 15.9428 19.7693 15.9609C19.843 15.9792 19.918 15.9915 19.9938 15.9981C20.148 16.0166 20.1966 15.9771 20.1318 15.8277C20.1037 15.7593 20.0715 15.6928 20.0353 15.6283C19.999 15.5639 19.9591 15.5019 19.9151 15.4424C19.8712 15.3828 19.8239 15.3262 19.7732 15.2726C19.7224 15.2189 19.6684 15.1684 19.6114 15.1214C19.5544 15.0742 19.4948 15.0308 19.4324 14.991C19.3701 14.9514 19.3056 14.9155 19.2387 14.8837C19.172 14.8518 19.1036 14.8244 19.0334 14.8009C18.9633 14.7775 18.8921 14.7584 18.8196 14.7438H18.8173Z" fill="{props.color}"/>
<path d="M12.0393 19.6831C12.0393 19.7462 12.0379 19.8092 12.0348 19.8721C12.0317 19.935 12.027 19.998 12.021 20.0606C12.0147 20.1234 12.0071 20.1859 11.9978 20.2482C11.9885 20.3106 11.9778 20.3727 11.9655 20.4344C11.9532 20.4964 11.9395 20.5579 11.9242 20.6189C11.909 20.6801 11.8922 20.7409 11.8738 20.8012C11.8556 20.8615 11.8358 20.9213 11.8146 20.9807C11.7934 21.0401 11.7707 21.0988 11.7466 21.1571C11.7225 21.2153 11.697 21.2728 11.6701 21.3298C11.6431 21.3868 11.6148 21.4431 11.585 21.4988C11.5554 21.5544 11.5243 21.6092 11.492 21.6633C11.4596 21.7173 11.4259 21.7705 11.3909 21.823C11.3559 21.8754 11.3196 21.9269 11.2821 21.9776C11.2445 22.0282 11.2057 22.0778 11.1658 22.1266C11.1258 22.1753 11.0846 22.2231 11.0424 22.2698C11 22.3165 10.9566 22.3621 10.912 22.4067C10.8674 22.4512 10.8219 22.4948 10.7751 22.537C10.7284 22.5794 10.6807 22.6206 10.6321 22.6606C10.5833 22.7007 10.5337 22.7394 10.483 22.7769C10.4324 22.8145 10.3809 22.8508 10.3285 22.8858C10.2762 22.9208 10.2229 22.9546 10.1688 22.987C10.1147 23.0194 10.0599 23.0505 10.0043 23.0801C9.94876 23.1099 9.89248 23.1382 9.83548 23.1652C9.77847 23.1921 9.72089 23.2177 9.66273 23.2417C9.60443 23.2659 9.54569 23.2886 9.48637 23.3099C9.42706 23.3311 9.36716 23.3508 9.30683 23.3692C9.2465 23.3874 9.18588 23.4044 9.12468 23.4195C9.06349 23.4349 9.002 23.4488 8.94022 23.4611C8.87845 23.4734 8.81638 23.4842 8.75402 23.4933C8.69167 23.5026 8.62917 23.5104 8.56638 23.5166C8.50373 23.5227 8.4408 23.5273 8.37787 23.5305C8.31493 23.5335 8.252 23.5351 8.18892 23.5351C8.12584 23.5351 8.06291 23.5335 7.99997 23.5305C7.93704 23.5275 7.8741 23.5228 7.81146 23.5166C7.74867 23.5104 7.68617 23.5027 7.62382 23.4935C7.56146 23.4842 7.49939 23.4735 7.43747 23.4612C7.3757 23.4489 7.31421 23.4352 7.25316 23.4198C7.19196 23.4045 7.13119 23.3877 7.07086 23.3693C7.01053 23.3511 6.95078 23.3313 6.89147 23.3102C6.832 23.2889 6.77327 23.2662 6.71511 23.242C6.6568 23.218 6.59922 23.1924 6.54222 23.1655C6.48522 23.1386 6.42894 23.1102 6.37338 23.0806C6.31783 23.0508 6.26299 23.0198 6.20888 22.9874C6.15478 22.955 6.10154 22.9213 6.04916 22.8863C5.99679 22.8513 5.94529 22.8149 5.89465 22.7773C5.84401 22.7399 5.79439 22.7011 5.74563 22.661C5.69688 22.6211 5.64913 22.58 5.6024 22.5376C5.55582 22.4952 5.5101 22.4518 5.46554 22.4072C5.42098 22.3627 5.37758 22.3171 5.33519 22.2704C5.29294 22.2237 5.25171 22.1759 5.21178 22.1272C5.1717 22.0785 5.13293 22.0288 5.09546 21.9781C5.05784 21.9275 5.02167 21.876 4.98666 21.8236C4.95151 21.7713 4.9178 21.718 4.88553 21.6639C4.85313 21.6098 4.82202 21.5551 4.79236 21.4994C4.76256 21.4439 4.7342 21.3876 4.70729 21.3306C4.68038 21.2736 4.65478 21.216 4.63076 21.1578C4.6066 21.0995 4.58388 21.0408 4.56276 20.9815C4.54149 20.922 4.52167 20.8623 4.50345 20.8019C4.48507 20.7416 4.46829 20.6808 4.45295 20.6198C4.43776 20.5586 4.42387 20.4971 4.41158 20.4353C4.39928 20.3734 4.38857 20.3113 4.37931 20.249C4.37005 20.1866 4.36239 20.1241 4.35617 20.0615C4.34994 19.9987 4.34531 19.9359 4.34228 19.8728C4.33924 19.8099 4.33765 19.7469 4.33765 19.6839C4.33765 19.6209 4.33924 19.5579 4.34228 19.4949C4.34546 19.432 4.35009 19.3692 4.35631 19.3064C4.36239 19.2436 4.3702 19.1811 4.37946 19.1188C4.38872 19.0564 4.39942 18.9943 4.41172 18.9326C4.42402 18.8708 4.43791 18.8093 4.45324 18.7481C4.46858 18.6871 4.48536 18.6263 4.50359 18.566C4.52196 18.5056 4.54178 18.4457 4.56291 18.3864C4.58417 18.3271 4.60689 18.2684 4.63105 18.2101C4.65521 18.1519 4.68067 18.0943 4.70758 18.0373C4.73464 17.9803 4.76299 17.924 4.79265 17.8685C4.82246 17.8129 4.85342 17.7581 4.88582 17.704C4.91823 17.65 4.95194 17.5968 4.9871 17.5443C5.02211 17.4919 5.05828 17.4404 5.09589 17.3897C5.13351 17.3391 5.17228 17.2895 5.21221 17.2407C5.25229 17.1921 5.29338 17.1444 5.33577 17.0976C5.37801 17.0509 5.42156 17.0053 5.46612 16.9608C5.51068 16.9162 5.55625 16.8728 5.60298 16.8304C5.64971 16.7882 5.69746 16.7469 5.74621 16.707C5.79497 16.6671 5.84459 16.6283 5.89523 16.5907C5.94586 16.5532 5.99737 16.5169 6.04989 16.4819C6.10226 16.4469 6.1555 16.4132 6.20961 16.3809C6.26357 16.3485 6.3184 16.3174 6.3741 16.2877C6.42966 16.2581 6.48594 16.2297 6.54294 16.2028C6.59994 16.1758 6.65753 16.1503 6.71568 16.1261C6.77399 16.1021 6.83273 16.0794 6.89219 16.0583C6.95151 16.037 7.01126 16.0172 7.07159 15.999C7.13192 15.9807 7.19268 15.964 7.25388 15.9486C7.31493 15.9333 7.37642 15.9195 7.43834 15.9072C7.50012 15.895 7.56218 15.8842 7.62454 15.875C7.68689 15.8657 7.74939 15.8581 7.81218 15.8518C7.87483 15.8458 7.93776 15.8411 8.0007 15.8381C8.06363 15.8349 8.12671 15.8335 8.18964 15.8335C8.25272 15.833 8.3158 15.8342 8.37888 15.8369C8.44196 15.8397 8.50489 15.8439 8.56783 15.8498C8.63062 15.8556 8.69326 15.863 8.75576 15.8719C8.81826 15.8809 8.88047 15.8913 8.94239 15.9033C9.00431 15.9153 9.06595 15.9289 9.12729 15.944C9.18863 15.959 9.24939 15.9755 9.30987 15.9936C9.37034 16.0117 9.43038 16.0314 9.48985 16.0524C9.54931 16.0735 9.60834 16.0959 9.66664 16.1199C9.72509 16.1439 9.78281 16.1693 9.83996 16.196C9.89711 16.2229 9.95353 16.2511 10.0092 16.2808C10.0649 16.3103 10.1199 16.3414 10.1742 16.3737C10.2284 16.4061 10.2818 16.4397 10.3343 16.4747C10.3868 16.5097 10.4385 16.5458 10.4891 16.5835C10.5399 16.6209 10.5897 16.6597 10.6386 16.6998C10.6873 16.7397 10.7351 16.7809 10.7819 16.8233C10.8287 16.8657 10.8744 16.9091 10.919 16.9538C10.9637 16.9984 11.0072 17.0441 11.0495 17.0908C11.0918 17.1377 11.1331 17.1855 11.173 17.2344C11.2131 17.2831 11.2519 17.3329 11.2893 17.3837C11.3269 17.4344 11.3631 17.486 11.3981 17.5386C11.4331 17.5911 11.4668 17.6445 11.4991 17.6986C11.5315 17.7529 11.5625 17.8079 11.592 17.8636C11.6216 17.9193 11.6499 17.9757 11.6768 18.0328C11.7035 18.09 11.729 18.1477 11.7529 18.2061C11.7769 18.2645 11.7995 18.3235 11.8204 18.3829C11.8414 18.4424 11.8611 18.5024 11.8792 18.5629C11.8973 18.6234 11.9137 18.6843 11.9288 18.7455C11.9438 18.8068 11.9574 18.8685 11.9694 18.9304C11.9815 18.9923 11.992 19.0545 12.0008 19.117C12.0098 19.1795 12.0172 19.2422 12.0231 19.3051C12.0289 19.3679 12.0331 19.4308 12.0359 19.4939C12.0386 19.557 12.0398 19.6201 12.0393 19.6831ZM10.7932 19.6947C10.7934 19.652 10.7925 19.6095 10.7905 19.5668C10.7886 19.5243 10.7856 19.4818 10.7815 19.4392C10.7775 19.3968 10.7724 19.3544 10.7663 19.3122C10.7602 19.2699 10.753 19.228 10.7449 19.186C10.7367 19.1442 10.7275 19.1026 10.7173 19.0612C10.707 19.0198 10.6957 18.9787 10.6836 18.9378C10.6713 18.897 10.658 18.8565 10.6438 18.8162C10.6295 18.776 10.6143 18.7361 10.5981 18.6967C10.5819 18.6572 10.5648 18.6182 10.5466 18.5796C10.5285 18.5409 10.5094 18.5029 10.4894 18.4651C10.4694 18.4275 10.4485 18.3903 10.4266 18.3537C10.4048 18.3171 10.3821 18.2809 10.3585 18.2455C10.3349 18.2099 10.3104 18.175 10.2851 18.1406C10.2598 18.1063 10.2336 18.0726 10.2067 18.0396C10.1797 18.0065 10.1519 17.9742 10.1234 17.9425C10.0947 17.9109 10.0655 17.8799 10.0354 17.8497C10.0053 17.8194 9.97451 17.7899 9.94297 17.7613C9.91143 17.7325 9.87917 17.7046 9.84633 17.6775C9.81334 17.6503 9.77978 17.624 9.74563 17.5985C9.71134 17.573 9.67662 17.5485 9.64118 17.5247C9.60573 17.5009 9.56971 17.478 9.53325 17.456C9.49665 17.434 9.45961 17.4129 9.42199 17.3928C9.38452 17.3725 9.34647 17.3533 9.30784 17.3351C9.26936 17.3167 9.23044 17.2993 9.19109 17.283C9.15159 17.2666 9.11195 17.2511 9.07173 17.2367C9.03166 17.2222 8.99115 17.2088 8.95035 17.1963C8.90955 17.1839 8.86846 17.1724 8.82709 17.162C8.78571 17.1516 8.74419 17.1422 8.70237 17.1338C8.66056 17.1254 8.61846 17.118 8.57636 17.1118C8.53412 17.1055 8.49187 17.1002 8.44934 17.0959C8.40695 17.0917 8.36441 17.0885 8.32188 17.0864C8.2792 17.0842 8.23666 17.0832 8.19398 17.083C8.1513 17.083 8.10862 17.084 8.06609 17.0861C8.02341 17.0881 7.98088 17.0913 7.93849 17.0953C7.89595 17.0995 7.85371 17.1047 7.81146 17.1108C7.76921 17.117 7.72726 17.1244 7.68545 17.1327C7.64364 17.1409 7.60197 17.1502 7.56059 17.1606C7.51921 17.1708 7.47813 17.1823 7.43733 17.1946C7.39638 17.2069 7.35588 17.2203 7.3158 17.2346C7.27558 17.249 7.23579 17.2643 7.19644 17.2805C7.15695 17.2969 7.11803 17.3141 7.0794 17.3323C7.04077 17.3505 7.00272 17.3698 6.96511 17.3899C6.92749 17.4099 6.89031 17.431 6.85385 17.4528C6.81725 17.4748 6.78122 17.4975 6.74563 17.5213C6.71019 17.545 6.67532 17.5694 6.64103 17.5949C6.60674 17.6202 6.57318 17.6465 6.54019 17.6736C6.50721 17.7007 6.47494 17.7284 6.44326 17.7571C6.41172 17.7857 6.3809 17.8151 6.35067 17.8453C6.32057 17.8754 6.29106 17.9064 6.26242 17.9379C6.23377 17.9696 6.20599 18.0019 6.17894 18.0349C6.15188 18.0678 6.1257 18.1014 6.10023 18.1357C6.07477 18.17 6.05032 18.2048 6.02659 18.2403C6.00287 18.2757 5.98015 18.3118 5.95816 18.3484C5.93632 18.385 5.91534 18.4221 5.89523 18.4598C5.87512 18.4974 5.85602 18.5354 5.83779 18.5741C5.81956 18.6125 5.8022 18.6516 5.786 18.691C5.76965 18.7305 5.75431 18.7702 5.73999 18.8103C5.72567 18.8505 5.71236 18.891 5.69992 18.9318C5.68762 18.9726 5.67633 19.0139 5.66592 19.0553C5.65564 19.0966 5.64624 19.1382 5.63799 19.1801C5.62975 19.2219 5.62251 19.2639 5.61629 19.3061C5.61007 19.3484 5.60486 19.3906 5.60067 19.4331C5.59662 19.4755 5.59343 19.5181 5.59141 19.5606C5.58938 19.6033 5.58837 19.646 5.58851 19.6885C5.58851 19.7312 5.58967 19.7739 5.5917 19.8164C5.59387 19.8591 5.59705 19.9016 5.60139 19.944C5.60559 19.9864 5.61079 20.0288 5.61716 20.0709C5.62353 20.1131 5.63076 20.1551 5.63915 20.1969C5.64754 20.2388 5.65695 20.2804 5.66736 20.3217C5.67792 20.3631 5.68935 20.4042 5.7018 20.445C5.71424 20.4858 5.72769 20.5262 5.74202 20.5664C5.75648 20.6065 5.77196 20.6463 5.78831 20.6856C5.80466 20.725 5.82202 20.764 5.8404 20.8025C5.85862 20.841 5.87787 20.879 5.89812 20.9167C5.91823 20.9543 5.93935 20.9913 5.96134 21.0278C5.98334 21.0644 6.00634 21.1004 6.03007 21.1358C6.05379 21.1711 6.07839 21.206 6.10399 21.2401C6.12946 21.2744 6.15564 21.308 6.18284 21.3408C6.21004 21.3738 6.23796 21.4061 6.26661 21.4376C6.2954 21.4692 6.32477 21.4998 6.35501 21.5299C6.38524 21.56 6.41621 21.5894 6.44789 21.618C6.47957 21.6465 6.51198 21.6743 6.54497 21.7014C6.57795 21.7283 6.61166 21.7545 6.6461 21.7798C6.68038 21.8051 6.71525 21.8296 6.75084 21.8531C6.78629 21.8767 6.82246 21.8994 6.85906 21.9213C6.89566 21.9431 6.93284 21.964 6.9706 21.9841C7.00822 22.004 7.04641 22.0231 7.08504 22.0412C7.12353 22.0593 7.16259 22.0765 7.20209 22.0927C7.24158 22.1089 7.28137 22.1241 7.32159 22.1384C7.36181 22.1526 7.40232 22.1659 7.44312 22.1781C7.48406 22.1904 7.52515 22.2017 7.56652 22.2119C7.60805 22.2221 7.64957 22.2313 7.69152 22.2396C7.73334 22.2477 7.77544 22.2549 7.81754 22.261C7.85978 22.2671 7.90217 22.2721 7.94456 22.2762C7.9871 22.2802 8.02963 22.2833 8.07217 22.2851C8.11485 22.2872 8.15753 22.288 8.20006 22.2879C8.24259 22.2885 8.28513 22.288 8.32766 22.2864C8.3702 22.285 8.41273 22.2824 8.45512 22.2788C8.49751 22.275 8.53976 22.2704 8.582 22.2646C8.6241 22.2588 8.66606 22.252 8.70802 22.2442C8.74983 22.2364 8.79135 22.2274 8.83273 22.2176C8.8741 22.2076 8.91519 22.1967 8.95614 22.1847C8.99693 22.1727 9.03744 22.1597 9.07766 22.1457C9.11774 22.1318 9.15767 22.1167 9.19702 22.1007C9.23652 22.0848 9.27544 22.0678 9.31406 22.0499C9.35269 22.032 9.39074 22.013 9.4285 21.9932C9.46612 21.9734 9.5033 21.9525 9.5399 21.9308C9.57651 21.9091 9.61253 21.8866 9.64798 21.8631C9.68342 21.8395 9.71829 21.8152 9.75258 21.7901C9.78687 21.7647 9.82043 21.7387 9.85342 21.7118C9.8864 21.6849 9.91866 21.6571 9.9502 21.6286C9.98189 21.6001 10.0127 21.5709 10.0428 21.5408C10.0729 21.5107 10.1023 21.4799 10.1309 21.4483C10.1594 21.4168 10.1872 21.3845 10.2142 21.3517C10.2411 21.3187 10.2673 21.2851 10.2927 21.251C10.3178 21.2167 10.3423 21.182 10.3659 21.1465C10.3894 21.1111 10.4122 21.0751 10.4339 21.0385C10.4556 21.0019 10.4764 20.9648 10.4964 20.9272C10.5163 20.8896 10.5353 20.8515 10.5532 20.8129C10.5713 20.7744 10.5882 20.7354 10.6043 20.696C10.6203 20.6565 10.6354 20.6167 10.6496 20.5767C10.6636 20.5364 10.6766 20.4959 10.6888 20.4551C10.7008 20.4143 10.7118 20.3732 10.7218 20.3319C10.7317 20.2905 10.7407 20.249 10.7487 20.2072C10.7566 20.1653 10.7634 20.1234 10.7694 20.0811C10.7751 20.039 10.7799 19.9968 10.7837 19.9544C10.7873 19.912 10.79 19.8695 10.7916 19.827C10.7932 19.7844 10.7938 19.7419 10.7932 19.6993V19.6947Z" fill="{props.color}"/>
<path d="M12.1228 8.14336H5.89333C5.80638 8.14336 5.71827 8.14336 5.63016 8.14336C5.16648 8.13526 4.86627 7.88483 4.8709 7.51272C4.87553 7.14062 5.17573 6.8938 5.64405 6.8938H18.6271C18.9181 6.8938 19.1672 6.9725 19.3145 7.24146C19.341 7.28862 19.3602 7.33853 19.3723 7.39119C19.3845 7.444 19.3888 7.49724 19.3855 7.55121C19.3823 7.60517 19.3715 7.65769 19.353 7.70847C19.3346 7.75925 19.3094 7.80656 19.2773 7.85011C19.2459 7.89742 19.209 7.93981 19.1663 7.97742C19.1238 8.01504 19.0771 8.04643 19.0261 8.07161C18.9754 8.09692 18.922 8.11515 18.8663 8.12629C18.8106 8.13743 18.7544 8.14119 18.6977 8.13758C18.3674 8.13758 18.0358 8.13758 17.7044 8.13758L12.1228 8.14336Z" fill="{props.color}"/>
<path d="M10.8524 11.1909H5.79601C5.69865 11.1909 5.60128 11.1909 5.50391 11.1909C5.46485 11.1901 5.42622 11.1856 5.38803 11.1778C5.34969 11.17 5.31251 11.1587 5.27634 11.1441C5.24017 11.1295 5.20559 11.1119 5.1726 11.091C5.13962 11.07 5.1088 11.0465 5.08001 11.02C5.05137 10.9935 5.02532 10.9647 5.00189 10.9335C4.97845 10.9022 4.95791 10.8692 4.9404 10.8344C4.92304 10.7994 4.90886 10.7632 4.89787 10.7257C4.88701 10.6882 4.87949 10.6502 4.87559 10.6113C4.85707 10.2937 5.07958 10.0317 5.43317 9.96907C5.55846 9.95084 5.68447 9.94317 5.81106 9.94592C9.17506 9.94592 12.5368 9.94592 15.896 9.94592C16.0424 9.94259 16.1874 9.95576 16.3307 9.98541C16.3653 9.9925 16.3992 10.0026 16.432 10.0157C16.4649 10.0288 16.4964 10.0446 16.5265 10.0631C16.5566 10.0816 16.5849 10.1027 16.6114 10.1262C16.6379 10.1496 16.6622 10.1752 16.6842 10.2029C16.7062 10.2306 16.7256 10.26 16.7425 10.2911C16.7594 10.3221 16.7734 10.3545 16.7847 10.3879C16.796 10.4215 16.8044 10.4558 16.8096 10.4908C16.815 10.5256 16.8173 10.5609 16.8164 10.5962C16.8141 10.6328 16.8086 10.6689 16.8001 10.7045C16.7914 10.74 16.7798 10.7746 16.7652 10.8083C16.7506 10.8419 16.7331 10.874 16.713 10.9045C16.6927 10.9351 16.67 10.9637 16.6448 10.9903C16.6198 11.017 16.5925 11.0413 16.5631 11.0631C16.5337 11.085 16.5028 11.1042 16.4699 11.1207C16.4372 11.1372 16.4034 11.1508 16.3684 11.1613C16.3333 11.172 16.2976 11.1796 16.2611 11.1839C16.1539 11.1936 16.0466 11.1964 15.939 11.192L10.8524 11.1909Z" fill="{props.color}"/>
<path d="M10.0329 14.235C8.54212 14.235 7.05095 14.235 5.55948 14.235C5.5291 14.2376 5.49872 14.2382 5.46834 14.2364C5.43795 14.2347 5.40786 14.2308 5.37791 14.2249C5.34811 14.2188 5.31889 14.2105 5.29024 14.2003C5.26159 14.1898 5.23382 14.1775 5.20691 14.1632C5.18 14.1489 5.15439 14.1327 5.12979 14.1146C5.1052 14.0967 5.0822 14.0769 5.0605 14.0554C5.03879 14.034 5.01883 14.0112 5.00045 13.9869C4.98208 13.9626 4.96559 13.9371 4.95098 13.9103C4.92421 13.8642 4.90439 13.8153 4.89151 13.7635C4.87864 13.7117 4.87314 13.6592 4.87517 13.6058C4.87705 13.5525 4.88631 13.5005 4.90294 13.4498C4.91958 13.399 4.94287 13.3517 4.97297 13.3076C4.99872 13.263 5.03011 13.2228 5.06686 13.1869C5.10375 13.1509 5.14484 13.1207 5.18998 13.0961C5.23512 13.0714 5.28286 13.0534 5.33292 13.0418C5.38312 13.0303 5.4339 13.0258 5.48526 13.0282H6.53793C9.16539 13.0282 11.7963 13.0282 14.4309 13.0282C14.8562 13.0282 15.1055 13.223 15.1379 13.5661C15.1751 13.966 14.9061 14.2385 14.4424 14.2385C13.0391 14.2385 11.6356 14.2385 10.2322 14.2385L10.0329 14.235Z" fill="{props.color}"/>
<path d="M2.32425 14.8539C2.32454 14.8737 2.32396 14.8935 2.32237 14.9132C2.32078 14.9329 2.31832 14.9526 2.3147 14.9719C2.31123 14.9915 2.30674 15.0107 2.30139 15.0297C2.29604 15.0488 2.28967 15.0674 2.28244 15.0859C2.2752 15.1043 2.2671 15.1223 2.25813 15.1399C2.24902 15.1576 2.23918 15.1746 2.22847 15.1913C2.21791 15.2081 2.20634 15.2241 2.19404 15.2396C2.18189 15.2551 2.16887 15.27 2.15512 15.2843C2.14138 15.2985 2.12691 15.3121 2.11187 15.3248C2.09682 15.3377 2.08119 15.3497 2.06499 15.361C2.04864 15.3723 2.032 15.3828 2.01464 15.3924C1.99743 15.4021 1.97963 15.4107 1.96155 15.4187C1.94346 15.4267 1.92494 15.4336 1.90614 15.4397C1.88733 15.4458 1.86823 15.451 1.84884 15.4552C1.8296 15.4594 1.81007 15.4627 1.7904 15.4649C1.77072 15.4672 1.75104 15.4686 1.73122 15.4689C1.71155 15.4692 1.69173 15.4686 1.67205 15.467C1.65223 15.4654 1.6327 15.463 1.61317 15.4595C1.59378 15.4559 1.57454 15.4515 1.55544 15.446C1.53649 15.4407 1.51768 15.4343 1.49931 15.4271C1.48093 15.4199 1.46285 15.4118 1.44534 15.4028C1.42769 15.3938 1.41048 15.384 1.39384 15.3733C1.3772 15.3626 1.36114 15.3511 1.34566 15.3388C1.33018 15.3265 1.31528 15.3135 1.30096 15.2998C1.28678 15.286 1.27318 15.2717 1.26045 15.2567C1.24757 15.2416 1.23556 15.2258 1.22428 15.2096C1.21299 15.1934 1.20243 15.1767 1.19288 15.1593C1.18319 15.1421 1.17437 15.1244 1.16655 15.1062C1.1586 15.0881 1.15165 15.0696 1.14557 15.0508C1.1395 15.032 1.13429 15.0129 1.13009 14.9936C1.1259 14.9743 1.12257 14.9547 1.12026 14.935C1.11794 14.9155 1.11664 14.8957 1.11635 14.876C1.11592 14.8562 1.1165 14.8364 1.11809 14.8167C1.11968 14.797 1.12214 14.7774 1.12575 14.7578C1.12923 14.7384 1.13357 14.7192 1.13906 14.7001C1.14442 14.681 1.15078 14.6623 1.15802 14.644C1.16525 14.6254 1.17335 14.6075 1.18232 14.5899C1.19129 14.5722 1.20113 14.555 1.21184 14.5383C1.22254 14.5217 1.23397 14.5057 1.24627 14.4902C1.25857 14.4745 1.27159 14.4596 1.28533 14.4455C1.29893 14.4311 1.3134 14.4177 1.32845 14.4048C1.34349 14.3919 1.35912 14.3799 1.37547 14.3686C1.39167 14.3574 1.40845 14.3468 1.42567 14.3371C1.44303 14.3276 1.46068 14.3187 1.47891 14.3108C1.49699 14.303 1.51551 14.2959 1.53432 14.2898C1.55313 14.2837 1.57222 14.2787 1.59161 14.2743C1.61085 14.2701 1.63038 14.2669 1.65006 14.2646C1.66974 14.2623 1.68941 14.261 1.70923 14.2606C1.72905 14.2603 1.74873 14.2609 1.76855 14.2625C1.78823 14.264 1.8079 14.2665 1.82729 14.2701C1.84682 14.2736 1.86606 14.2781 1.88516 14.2834C1.90411 14.2888 1.92292 14.2951 1.94129 14.3024C1.95967 14.3096 1.97775 14.3177 1.9954 14.3268C2.01291 14.3358 2.03012 14.3456 2.04676 14.3563C2.0634 14.3671 2.07946 14.3785 2.09508 14.3908C2.11056 14.4031 2.12547 14.4161 2.13964 14.4298C2.15397 14.4436 2.16742 14.4581 2.1803 14.4731C2.19303 14.4881 2.20518 14.5038 2.21647 14.5201C2.22775 14.5363 2.23817 14.5531 2.24786 14.5703C2.25741 14.5877 2.26623 14.6053 2.27419 14.6236C2.282 14.6416 2.28895 14.6602 2.29503 14.679C2.3011 14.6978 2.30631 14.7169 2.31051 14.7363C2.3147 14.7557 2.31803 14.7752 2.3202 14.7947C2.32251 14.8144 2.32382 14.8342 2.32425 14.8539Z" fill="{props.color}"/>
<path d="M7.80248 21.1415C7.43963 21.1415 6.47754 20.2604 6.44166 19.8976C6.43659 19.8674 6.43399 19.837 6.43384 19.8063C6.4337 19.7756 6.43601 19.7451 6.44079 19.7149C6.44556 19.6846 6.4528 19.6548 6.4622 19.6258C6.47175 19.5967 6.48361 19.5685 6.49765 19.5413C6.51168 19.5139 6.52788 19.488 6.54611 19.4634C6.56434 19.4387 6.58445 19.4157 6.6063 19.3943C6.62829 19.3729 6.65173 19.3533 6.67676 19.3357C6.70193 19.318 6.72812 19.3025 6.75575 19.2891C6.78251 19.2742 6.81029 19.2616 6.83908 19.251C6.86787 19.2406 6.89724 19.2322 6.92719 19.2263C6.95728 19.2202 6.98752 19.2166 7.01819 19.2153C7.04872 19.2139 7.07924 19.2149 7.10963 19.2183C7.14001 19.2217 7.1701 19.2273 7.19961 19.2353C7.22913 19.2432 7.25792 19.2534 7.28599 19.2658C7.31391 19.2782 7.34082 19.2927 7.36657 19.3092C7.39232 19.3257 7.41677 19.3441 7.43963 19.3645C7.79901 19.6415 7.79669 19.6379 8.09921 19.296C8.34386 19.0178 8.59067 18.7419 8.84458 18.473C9.11932 18.1832 9.49837 18.1519 9.75575 18.3849C10.0131 18.6179 10.0397 18.983 9.76385 19.296C9.28049 19.8444 8.78324 20.3786 8.28931 20.9189C8.26023 20.955 8.22725 20.9873 8.1905 21.0158C8.1539 21.0443 8.1144 21.0682 8.07215 21.0876C8.02991 21.1068 7.98607 21.1211 7.9405 21.1302C7.89493 21.1393 7.84892 21.143 7.80248 21.1415Z" fill="{props.color}"/>
</g>
<defs>
<clipPath id="clip0_5_74">
<rect width="30" height="30" fill="{props.color}"/>
</clipPath>
</defs>
</svg>
