<svg width="30" height="30" viewBox="0 0 30 30" fill="none" xmlns="http://www.w3.org/2000/svg">
<g clip-path="url(#clip0_5_102)">
<path d="M14.9478 19.156C14.9466 19.156 14.9466 19.156 14.9455 19.156C14.8244 19.156 14.7139 19.0826 14.665 18.9709C14.5184 18.6382 14.274 18.2484 13.9378 17.8098C13.1187 16.7405 11.9342 15.6107 11.0837 14.852C10.9568 14.738 10.9452 14.5426 11.0592 14.4145C11.1732 14.2876 11.3687 14.2761 11.4955 14.3901C12.3659 15.1674 13.5806 16.3263 14.4288 17.4339C14.6336 17.7004 14.8082 17.954 14.9513 18.1914C15.0909 17.9646 15.2607 17.7225 15.4585 17.4676C16.2626 16.4356 17.4017 15.3546 18.2162 14.6286C18.3442 14.5158 18.5397 14.5262 18.6525 14.6543C18.7665 14.7821 18.7549 14.9777 18.6269 15.0906C17.8322 15.7992 16.7211 16.8522 15.9472 17.847C15.6168 18.2717 15.3759 18.6511 15.2293 18.9746C15.1793 19.0851 15.0688 19.156 14.9478 19.156Z" stroke="{props.color}" fill="{props.color}"/>
<path d="M7.46851 11.4311C7.38822 11.4311 7.30676 11.3997 7.24629 11.337C6.94131 11.0204 6.67728 10.7331 6.46084 10.4816C6.28636 10.2792 6.11406 10.0558 5.94999 9.81728C5.52768 9.20761 5.20187 8.55483 4.98197 7.87645C4.44898 6.23235 4.55141 4.67911 5.2868 3.26187C6.19551 1.50724 7.98399 0.336663 9.95506 0.207467C12.7825 0.0225714 14.4172 2.1658 15.0293 3.18851C15.6517 2.17274 17.3017 0.0445621 20.1326 0.25984C22.1036 0.410013 23.8804 1.59911 24.7693 3.36314C24.9776 3.77387 25.1347 4.20544 25.2359 4.64641C25.4617 5.61806 25.2301 6.62804 24.6018 7.41812C23.9572 8.23018 22.9927 8.6956 21.9571 8.6956H21.9292C21.8023 8.6956 21.6883 8.61762 21.6417 8.50015L21.1146 7.16435L20.143 10.6644C20.1081 10.7924 19.9941 10.8831 19.8615 10.89C19.7218 10.8935 19.6067 10.818 19.5578 10.6946L18.77 8.6956H17.6834C17.5565 8.6956 17.4425 8.61762 17.3959 8.50015L16.87 7.16435L15.8985 10.6644C15.8623 10.7924 15.7495 10.8831 15.6168 10.89C15.4795 10.8935 15.362 10.818 15.3131 10.6946L14.5254 8.6956H12.7569C12.5858 8.6956 12.4474 8.55715 12.4474 8.38614C12.4474 8.21513 12.5858 8.07668 12.7569 8.07668H14.736C14.8629 8.07668 14.9769 8.15452 15.0235 8.27329L15.5494 9.60909L16.5209 6.10909C16.5571 5.98105 16.6699 5.88918 16.8026 5.88224C16.9374 5.8763 17.0585 5.95428 17.1062 6.07769L17.8939 8.07668H18.9807C19.1075 8.07668 19.2215 8.15452 19.2681 8.27329L19.7952 9.60909L20.7655 6.10909C20.8017 5.98105 20.9145 5.88918 21.0484 5.88224C21.1857 5.8763 21.3031 5.95428 21.352 6.07769L22.1373 8.07191C22.9135 8.02199 23.6279 7.6496 24.1178 7.03299C24.6285 6.39178 24.8159 5.57263 24.6343 4.78487C24.5436 4.3928 24.4028 4.00767 24.2178 3.64121C23.4254 2.06916 21.8418 1.01042 20.086 0.876593C16.828 0.626449 15.3237 3.92853 15.3085 3.96108C15.2584 4.07277 15.1479 4.14497 15.0258 4.14497C15.0258 4.14497 15.0258 4.14497 15.0246 4.14497C14.9024 4.14381 14.7919 4.07162 14.743 3.95877C14.6825 3.82263 13.2421 0.612415 9.99571 0.824221C8.23992 0.939383 6.64588 1.98192 5.83483 3.54572C5.17974 4.81163 5.09018 6.20443 5.57065 7.68678C5.77088 8.307 6.06993 8.90509 6.45853 9.46586C6.61087 9.68692 6.76915 9.89178 6.92974 10.078C7.13807 10.3212 7.394 10.5992 7.69189 10.9076C7.80937 11.0297 7.80705 11.2253 7.68379 11.3439C7.62317 11.4021 7.54649 11.4311 7.46851 11.4311Z" stroke="{props.color}" fill="{props.color}"/>
<mask id="mask0_5_102" style="mask-type:luminance" maskUnits="userSpaceOnUse" x="26" y="18" width="4" height="6">
<path d="M26.4075 18.8519H29.689V23.1111H26.4075V18.8519Z" stroke="{props.color}" fill="{props.color}"/>
</mask>
<g mask="url(#mask0_5_102)">
<path d="M28.5661 23.0771H26.7288C26.5578 23.0771 26.4205 22.9375 26.4205 22.7676C26.4205 22.5966 26.5578 22.4582 26.7288 22.4582H28.5661C28.8395 22.4582 29.0617 22.236 29.0617 21.9625V19.9972C29.0617 19.725 28.8395 19.5016 28.5661 19.5016H26.7288C26.5578 19.5016 26.4205 19.3631 26.4205 19.1931C26.4205 19.0221 26.5578 18.8837 26.7288 18.8837H28.5661C29.1804 18.8837 29.6796 19.3828 29.6796 19.9972V21.9625C29.6796 22.5768 29.1804 23.0771 28.5661 23.0771Z" stroke="{props.color}" fill="{props.color}"/>
</g>
<mask id="mask1_5_102" style="mask-type:luminance" maskUnits="userSpaceOnUse" x="0" y="18" width="4" height="6">
<path d="M0.300049 18.8519H3.55555V23.1111H0.300049V18.8519Z" fill="{props.color}"/>
</mask>
<g mask="url(#mask1_5_102)">
<path d="M3.24119 23.0771H1.40395C0.789659 23.0771 0.290527 22.5768 0.290527 21.9625V19.9972C0.290527 19.3828 0.789659 18.8837 1.40395 18.8837H3.24119C3.41234 18.8837 3.5508 19.0221 3.5508 19.1931C3.5508 19.3631 3.41234 19.5016 3.24119 19.5016H1.40395C1.13052 19.5016 0.908294 19.725 0.908294 19.9972V21.9625C0.908294 22.236 1.13052 22.4582 1.40395 22.4582H3.24119C3.41234 22.4582 3.5508 22.5966 3.5508 22.7676C3.5508 22.9375 3.41234 23.0771 3.24119 23.0771Z" stroke="{props.color}" fill="{props.color}"/>
</g>
<path d="M19.4006 19.5016H16.0741C15.9042 19.5016 15.7657 19.3631 15.7657 19.1931C15.7657 19.0221 15.9042 18.8837 16.0741 18.8837H19.4006C19.5717 18.8837 19.7102 19.0221 19.7102 19.1931C19.7102 19.3631 19.5717 19.5016 19.4006 19.5016Z" fill="{props.color}"/>
<path d="M13.8226 19.5016H10.3027C10.1329 19.5016 9.99329 19.3631 9.99329 19.1931C9.99329 19.0221 10.1329 18.8837 10.3027 18.8837H13.8226C13.9936 18.8837 14.132 19.0221 14.132 19.1931C14.132 19.3631 13.9936 19.5016 13.8226 19.5016Z" fill="{props.color}"/>
<path d="M19.4005 23.0771H10.3027C10.1329 23.0771 9.99329 22.9375 9.99329 22.7677C9.99329 22.5966 10.1329 22.4582 10.3027 22.4582H19.4005C19.5717 22.4582 19.7102 22.5966 19.7102 22.7677C19.7102 22.9375 19.5717 23.0771 19.4005 23.0771Z" fill="{props.color}"/>
<path d="M8.06774 12.5959C7.10304 12.5959 6.3189 13.3801 6.3189 14.3446V27.6162C6.3189 28.5807 7.10304 29.365 8.06774 29.365C9.03114 29.365 9.81644 28.5796 9.81644 27.6162V14.3446C9.81644 13.3801 9.03114 12.5959 8.06774 12.5959ZM8.06774 29.9828C6.76218 29.9828 5.69983 28.9206 5.69983 27.6162V14.3446C5.69983 13.0392 6.76218 11.9769 8.06774 11.9769C9.37199 11.9769 10.4343 13.0392 10.4343 14.3446V27.6162C10.4343 28.9217 9.37199 29.9828 8.06774 29.9828Z" stroke="{props.color}" fill="{props.color}"/>
<path d="M5.29967 27.3392C3.99412 27.3392 2.93176 26.2769 2.93176 24.9713V16.8288C2.93176 15.5246 3.99412 14.4622 5.29967 14.4622C5.46952 14.4622 5.60798 14.6007 5.60798 14.7717C5.60798 14.9427 5.46952 15.0811 5.29967 15.0811C4.33497 15.0811 3.55083 15.8654 3.55083 16.8288V24.9713C3.55083 25.936 4.33497 26.7202 5.29837 26.7202C5.46952 26.7202 5.60798 26.8586 5.60798 27.0298C5.60798 27.2008 5.46952 27.3392 5.29967 27.3392Z" stroke="{props.color}" fill="{props.color}"/>
<path d="M21.6371 12.5959C20.6725 12.5959 19.8882 13.3801 19.8882 14.3446V27.6162C19.8882 28.5807 20.6725 29.365 21.6371 29.365C22.6005 29.365 23.3859 28.5807 23.3859 27.6162V14.3446C23.3859 13.3801 22.6005 12.5959 21.6371 12.5959ZM21.6371 29.9828C20.3315 29.9828 19.2693 28.9206 19.2693 27.6162V14.3446C19.2693 13.0392 20.3315 11.9769 21.6371 11.9769C22.9415 11.9769 24.0037 13.0392 24.0037 14.3446V27.6162C24.0037 28.9206 22.9415 29.9828 21.6371 29.9828Z" stroke="{props.color}" fill="{props.color}"/>
<path d="M24.4935 27.4184C24.3225 27.4184 24.1841 27.28 24.1841 27.1088C24.1841 26.939 24.3225 26.8005 24.4935 26.8005C25.4582 26.8005 26.2424 26.0152 26.2424 25.0517V16.9091C26.2424 15.9446 25.4582 15.1603 24.4935 15.1603C24.3225 15.1603 24.1841 15.0219 24.1841 14.8508C24.1841 14.681 24.3225 14.5414 24.4935 14.5414C25.7979 14.5414 26.8603 15.6036 26.8603 16.9091V25.0517C26.8603 26.3561 25.7979 27.4184 24.4935 27.4184Z"  stroke="{props.color}" fill="{props.color}"/>
</g>
<defs>
<clipPath id="clip0_5_102">
<rect width="30" height="30" fill="{props.color}"/>
</clipPath>
</defs>
</svg>
