<svg width="35" height="35" viewBox="0 0 35 35" fill="none" xmlns="http://www.w3.org/2000/svg">
<g clip-path="url(#clip0_5_68)">
<mask id="mask0_5_68" style="mask-type:luminance" maskUnits="userSpaceOnUse" x="0" y="0" width="33" height="35">
<path d="M0 0H32.7963V34.8056H0V0Z" fill="{props.color}"/>
</mask>
<g mask="url(#mask0_5_68)">
<path fill-rule="evenodd" clip-rule="evenodd" d="M23.3976 25.3034C22.6737 26.777 21.9899 28.1686 21.8846 30.0582C21.8228 31.166 21.9812 32.4344 22.0639 33.6397C22.0674 33.6931 22.0293 33.7349 21.9761 33.7349H15.5383V28.5759C15.5383 28.0476 15.1084 27.6179 14.5806 27.6179C13.3836 27.6179 13.4217 28.3101 12.5943 28.3101C11.9521 28.3101 11.429 27.7873 11.429 27.1446C11.429 26.1619 12.5786 25.6238 13.3336 26.2439C13.7092 26.5523 14.1008 26.6718 14.5806 26.6718C15.1084 26.6718 15.5383 26.2419 15.5383 25.7138V21.3641H19.7992C19.7913 21.5484 19.7326 21.6983 19.6117 21.8448C19.2868 22.2406 19.1077 22.7409 19.1077 23.2533C19.1077 24.4774 20.1036 25.4729 21.3273 25.4729C22.551 25.4729 23.5463 24.4774 23.5463 23.2533C23.5463 22.7409 23.3673 22.2406 23.0423 21.8448C22.9215 21.6983 22.8628 21.5484 22.8548 21.3641H24.9726C24.5503 22.9559 23.9656 24.1471 23.3976 25.3034ZM12.529 33.651C12.5309 33.6981 12.5705 33.7349 12.6178 33.7349H14.4841V28.6731C14.3003 28.6807 14.1494 28.7395 14.0034 28.8603C13.6076 29.1856 13.1078 29.3643 12.5943 29.3643C11.3708 29.3643 10.3748 28.3688 10.3748 27.1447C10.3748 25.921 11.3708 24.9255 12.5943 24.9255C13.1078 24.9255 13.6076 25.1043 14.0034 25.4295C14.1494 25.5504 14.3001 25.6088 14.4841 25.6172V21.3641H10.1339C9.6061 21.3641 9.17619 20.9343 9.17619 20.406C9.17619 19.9257 9.29519 19.5356 9.60424 19.1594C10.2234 18.4059 9.68847 17.2553 8.70291 17.2553C8.06067 17.2553 7.5381 17.778 7.5381 18.4201C7.5381 19.2465 8.2303 19.2108 8.2303 20.4059C8.2303 20.9343 7.8004 21.3641 7.27209 21.3641H1.22271C1.0924 21.516 1.06894 21.5948 1.08126 21.7901C1.09071 21.9388 1.18945 22.0814 1.31757 22.1631L3.39569 23.4852C3.64313 23.6424 3.82695 23.8464 3.95809 24.1087L4.45889 25.1103L5.18552 25.5467C5.32461 25.6302 5.41845 25.773 5.43803 25.934C5.47179 26.2125 5.31549 26.3437 5.15514 26.5035C5.33338 26.8598 5.4328 27.1149 5.37963 27.5422L5.10856 29.7102C4.99868 30.5877 5.75232 31.3162 6.6258 31.1766L11.1076 30.4598C11.4638 30.4024 11.8044 30.5068 12.068 30.7533C12.3211 30.9896 12.4483 31.3064 12.4293 31.6494L12.529 33.651ZM4.66566 17.6757C6.8118 15.1705 5.53289 12.6521 7.23985 10.3815C8.81836 8.28245 11.4575 7.01755 14.4841 6.90936V13.0978C14.4841 13.6261 14.9145 14.0559 15.4421 14.0559C16.6385 14.0559 16.6019 13.3633 17.4279 13.3633C18.0707 13.3633 18.5934 13.8864 18.5934 14.5286C18.5934 15.513 17.4431 16.0494 16.6888 15.4298C16.3127 15.1211 15.9239 15.0019 15.4421 15.0019C14.9143 15.0019 14.4841 15.4318 14.4841 15.9596V20.3098H10.2315C10.2394 20.1255 10.2976 19.9756 10.4185 19.8286C10.7439 19.4333 10.9226 18.933 10.9226 18.4202C10.9226 17.1965 9.92713 16.201 8.70291 16.201C6.83189 16.201 5.80565 18.3855 6.98819 19.8288C7.1082 19.9758 7.16744 20.1255 7.17537 20.3098H2.20657L4.66566 17.6757ZM25.643 20.3098H22.7583C22.2295 20.3098 21.8002 20.7396 21.8002 21.2679C21.8002 22.4625 22.4928 22.429 22.4928 23.2533C22.4928 23.8959 21.9695 24.4186 21.3273 24.4186C20.3431 24.4186 19.8063 23.2687 20.4261 22.5145C20.7348 22.1388 20.854 21.7479 20.854 21.2679C20.854 20.7396 20.4246 20.3098 19.8963 20.3098H15.5383V16.0572C15.7227 16.0646 15.8729 16.1235 16.0199 16.2442C16.4152 16.5691 16.9151 16.7484 17.4279 16.7484C18.6516 16.7484 19.6475 15.7529 19.6475 14.5286C19.6475 13.3051 18.6516 12.3096 17.4279 12.3096C16.915 12.3096 16.4147 12.4883 16.0189 12.8136C15.8729 12.9344 15.7225 12.9928 15.5382 13.0008V6.37531C15.5382 6.08651 15.3058 5.85122 15.017 5.84852C11.4945 5.81358 8.29073 7.22887 6.39692 9.74821C5.43128 11.033 5.26789 12.302 5.11025 13.5294C4.9558 14.7293 4.80963 15.8629 3.88518 16.9663L0.445941 20.6514C-0.0913131 21.2263 -0.111905 22.1177 0.361378 22.7049L0.362391 22.7044C0.468727 22.8383 0.599876 22.9559 0.751617 23.0521L2.8289 24.3743C2.91582 24.4293 2.9695 24.489 3.01524 24.58L3.58456 25.7188C3.67774 25.9062 3.87606 25.9901 4.07371 26.1086C3.97193 26.2635 3.95691 26.4642 4.04181 26.6348L4.28217 27.1147C4.33213 27.2145 4.34715 27.3004 4.33314 27.4114L4.0619 29.5792C3.86475 31.153 5.2262 32.4677 6.79222 32.2175L11.2739 31.5003C11.401 31.4801 11.3728 31.6342 11.3743 31.6696L11.4759 33.7035C11.5063 34.3122 12.008 34.7892 12.6176 34.7892H21.9761C22.6425 34.7892 23.1662 34.2241 23.1153 33.5589C23.0292 32.4341 22.8832 31.0848 22.9375 30.1169C23.0309 28.441 23.6394 27.2023 24.3437 25.7678C24.9812 24.4693 25.7041 22.9973 26.1577 20.9509C26.2308 20.6234 25.9786 20.3098 25.643 20.3098ZM31.3685 14.4625H28.9047C28.3764 14.4625 27.9462 14.8924 27.9462 15.4205C27.9462 16.6154 28.6392 16.5823 28.6392 17.4065C28.6392 18.0487 28.1165 18.5713 27.4729 18.5713C26.491 18.5713 25.9507 17.4232 26.5731 16.6672C26.8814 16.2927 27.0003 15.899 27.0003 15.4205C27.0003 14.8922 26.5709 14.4625 26.0421 14.4625H21.6927V10.2098C21.8767 10.2173 22.0264 10.2762 22.1734 10.397C22.5692 10.7218 23.0695 10.901 23.582 10.901C24.8062 10.901 25.8012 9.90552 25.8012 8.68147C25.8012 7.45775 24.8062 6.46224 23.582 6.46224C23.0695 6.46224 22.5692 6.64149 22.1734 6.96624C22.0264 7.08726 21.8767 7.14549 21.6927 7.15342V1.07265C26.6198 1.33916 31.6784 4.60252 31.7157 10.3839C31.725 11.8773 31.6117 13.2163 31.3685 14.4625ZM32.77 10.3769C32.7811 12.1168 32.6309 13.6624 32.3117 15.1037C32.2585 15.3449 32.0447 15.5167 31.7974 15.5167H29.0019C29.0094 15.701 29.0678 15.8509 29.1884 15.9979C29.5139 16.3931 29.6931 16.8935 29.6931 17.4063C29.6931 18.63 28.6976 19.6256 27.4729 19.6256C25.5986 19.6256 24.5771 17.4367 25.7583 15.9978C25.8787 15.8508 25.9374 15.701 25.9453 15.5166H21.1659C20.8746 15.5166 20.6385 15.2804 20.6385 14.9893V10.1121C20.6385 9.58432 21.0679 9.15458 21.5967 9.15458C22.0752 9.15458 22.4686 9.27392 22.8432 9.58212C23.598 10.2029 24.7469 9.66517 24.7469 8.6813C24.7469 8.03872 24.2247 7.51649 23.582 7.51649C22.7569 7.51649 22.7914 8.20852 21.5967 8.20852C21.0679 8.20852 20.6385 7.77879 20.6385 7.25048V0.528642C20.6385 0.234949 20.878 -0.00169215 21.1705 0.00168362C26.6966 0.066836 32.7268 3.63435 32.77 10.3769Z"  fill="{props.color}"/>
</g>
</g>
<defs>
<clipPath id="clip0_5_68">
<rect width="35" height="35" fill="{props.color}"/>
</clipPath>
</defs>
</svg>
