<svg width="31" height="30" viewBox="0 0 31 30" fill="none" xmlns="http://www.w3.org/2000/svg">
<path d="M29.9031 26.7604H28.4313V11.7657L29.4872 12.486C29.5269 12.5128 29.5722 12.5266 29.618 12.5266C29.6572 12.5266 29.6961 12.5166 29.7318 12.4964C29.8091 12.4527 29.8571 12.3686 29.8571 12.2769V10.1723C29.8571 10.0881 29.8165 10.0095 29.7488 9.96333L15.2074 0.0407708C15.128 -0.0135903 15.025 -0.0135903 14.9456 0.0407708L0.4045 9.96333C0.336737 10.0095 0.296167 10.0881 0.296167 10.1723V12.2769C0.296167 12.3686 0.344153 12.453 0.421368 12.4964C0.498583 12.5399 0.592375 12.5361 0.665809 12.486L1.72166 11.7654V26.7604H0.249925C0.117889 26.7604 0.0108643 26.872 0.0108643 27.0102V29.7163C0.0108643 29.8545 0.117889 29.9661 0.249925 29.9661H29.9031C30.0351 29.9661 30.1421 29.8545 30.1421 29.7163V27.0102C30.1421 26.8723 30.0351 26.7604 29.9031 26.7604ZM5.90653 26.7604V24.8543H24.2464V26.7604H5.90653ZM24.2464 21.6493H5.90653V19.4425H24.2464V21.6493ZM5.90653 22.1487H24.2464V24.3552H5.90653V22.1487ZM5.05106 16.2369V13.4288H25.1019V16.2369H5.05106ZM24.2464 16.7363V18.9431H5.90653V16.7363H24.2464ZM24.7247 16.7363H25.341C25.473 16.7363 25.5802 16.6247 25.5802 16.4867V13.1791C25.5802 13.0413 25.473 12.9293 25.341 12.9293H4.812C4.67996 12.9293 4.57279 13.0413 4.57279 13.1791V16.4867C4.57279 16.6247 4.67996 16.7363 4.812 16.7363H5.42827V26.7607H2.19993V11.6247H27.953V26.7604H24.7247V16.7363ZM0.774143 10.3074L15.0765 0.548242L29.3788 10.3077V11.8157L15.2074 2.14567C15.1677 2.11849 15.1219 2.10497 15.0765 2.10497C15.0311 2.10497 14.9853 2.11849 14.9456 2.14567L0.774143 11.8154V10.3074ZM15.0765 2.65283L27.493 11.1253H2.66002L15.0765 2.65283ZM29.6638 29.4666H0.489131V27.2599H29.6638V29.4666Z" stroke="{props.color}" fill="{props.color}"/>
</svg>
